<svg xmlns="http://www.w3.org/2000/svg" viewBox="0 0 80 80"><defs><linearGradient id="g" x1=".1" x2=".85" y2="1"><stop stop-color="#fff"/><stop offset=".43" stop-color="#d7e8ed"/><stop offset=".7" stop-color="#fff"/><stop offset="1" stop-color="#8aa5b6"/></linearGradient></defs><g fill="url(#g)"><path d="M10 11h24c14 0 22 7 31 17H41C27 28 18 21 10 11Z"/><path d="M17 31h27c14 0 21 3 28 9-7 6-14 9-28 9H17c8-7 16-9 27-9-11 0-19-2-27-9Z"/><path d="M10 69h24c14 0 22-7 31-17H41c-14 0-23 7-31 17Z"/></g></svg>
